<?xml version="1.0" encoding="utf-8"?>
<!-- Generator: Adobe Illustrator 19.0.1, SVG Export Plug-In . SVG Version: 6.00 Build 0)  -->
<svg version="1.1" id="Layer_1" xmlns="http://www.w3.org/2000/svg" xmlns:xlink="http://www.w3.org/1999/xlink" x="0px" y="0px"
	 viewBox="0 0 2800 1500" style="enable-background:new 0 0 2800 1500;" xml:space="preserve">
<style type="text/css">
	.st0{fill:#394695;}
</style>
<g>
	<g>
		<g>
			<path class="st0" d="M806.6,714.6c33.4-9,66.9,4.6,94.8,22.6c27.8,18,52.9,40.7,76.4,63.9c46.7,46.3,87,98.5,127.9,149.9
				c76.9,96.8,163,198.5,285.3,236.6c56.7,17.7,119.3,21,175.9,0.7c52.1-18.8,94.1-56.8,125.3-101.8c16.3-23.6,29.8-49,41.2-75.3
				c12.2-28.3,21.4-57.7,31.2-86.9c22.4-66.7,44.8-133.7,59-202.8c6.2-30.3,11-60.6,20.7-90.1c8.8-26.7,20.4-52.7,35.4-76.6
				c25.5-40.8,63-78.1,111.7-87.8c11.4-2.3,23-2.9,34.6-2.1c1.3,0.1,1.3-1.9,0-2c-105.8-7.5-168.2,105.6-191.1,193.3
				c-8.3,31.8-12.6,64.5-20.3,96.4c-8.3,34.6-18.5,68.8-29.3,102.7c-10.8,34-22.4,67.7-33.6,101.5c-9.4,28.2-20,55.8-33.5,82.3
				c-25.8,50.3-61.5,97.3-110.2,127.3c-53.6,33-118,40.3-179.1,28.7c-129.7-24.6-223.7-124-303.2-222.4
				c-41.2-51-80.6-103.6-125.5-151.5c-22.4-23.9-46.1-46.5-71.8-66.9c-23.8-18.8-50.3-36.7-80.6-42.7c-13.9-2.8-28-2.6-41.6,1.1
				C804.8,713,805.3,714.9,806.6,714.6L806.6,714.6z"/>
		</g>
	</g>
	<g>
		<g>
			<path class="st0" d="M892.1,803.6c20.9-3.4,41.3,3.4,59.9,12.8c16,8,31.3,17.6,46.2,27.4c30.3,20,58.9,42.4,86.4,66.1
				c54.3,46.8,104.3,98.4,156.7,147.3c25.7,24,51.8,47.9,80.2,68.6c28.1,20.5,59.3,38.3,93.6,45.7c33.4,7.2,67.4,2.3,97.7-13.5
				c29.6-15.5,54.2-39.3,73.6-66.3c42.2-58.9,57.9-130.3,74-199.5c9.4-40.4,18.4-80.8,27.4-121.3c5-22.5,10.1-44.3,18.9-65.7
				c17.6-43.1,42.5-83.3,68.9-121.5c30.1-43.5,63.2-84.9,98.3-124.4c31.8-35.7,65.2-70.2,101.4-101.5c14.3-12.4,29.1-24.4,44.7-35.1
				c11.3-7.7,23.1-15.2,36-19.9c4.4-1.6,9-2.9,13.7-3.3c1.3-0.1,1.3-2.1,0-2c-10.4,0.8-20.4,5.5-29.5,10.4
				c-13.9,7.5-26.9,16.8-39.4,26.4c-35,27-67,58-97.4,90c-35.9,37.7-69.7,77.5-101.1,119.1c-29.7,39.3-57.6,80.4-80.3,124.2
				c-9.2,17.8-17.6,36.2-24.1,55.2c-9.8,29-14.7,59.7-21.4,89.5c-9,40.5-18.2,80.9-28,121.2c-8.5,35.1-18.1,69.9-33,102.9
				c-28.3,62.9-80.7,127.5-153.9,135.7c-74.6,8.4-139.6-44.9-191.6-91.3c-53.5-47.8-103.4-99.5-156.4-147.8
				c-26-23.7-52.9-46.6-81.1-67.6c-14.3-10.7-29-20.8-44.1-30.3c-15.1-9.5-30.6-19-47.1-25.9c-15.8-6.6-32.5-10.3-49.6-7.5
				C890.3,801.9,890.9,803.8,892.1,803.6L892.1,803.6z"/>
		</g>
	</g>
	<g>
		<g>
			<path class="st0" d="M1056.6,972.5c99,37.4,208.3,54.5,313.9,44.2c46.7-4.5,94.1-16.4,132.5-44.5c36.9-27,62.1-66.7,79.7-108.3
				c39.1-92.1,42.8-199.1,104-281.5c13.7-18.4,29.9-35.1,48.9-48c15.3-10.4,32.3-17,48.9-24.8c35.8-16.7,71-34.9,107.6-49.7
				c16.1-6.5,32.6-12.7,49.6-16c22.4-4.4,46.5-4.1,69.1-1.5c34.9,4,71.7,15.8,98.2,39.8c4.1,3.8,8,7.8,11.3,12.4c0.8,1,2.5,0,1.7-1
				c-16.9-23.1-45.5-37.1-72.1-45.2c-20.4-6.2-41.7-9.1-62.9-9.5c-19.8-0.4-39.8,1-59,6.4c-37.7,10.6-73.4,28.6-108.5,45.5
				c-15.7,7.6-31.3,15.3-47.3,22.4c-18.4,8.2-35.7,16.9-51.4,29.9c-78.6,65.1-93,172.2-120.4,264.3c-13.7,46.3-32.3,92.5-63.5,130
				c-32.1,38.5-76.2,61-124.7,71.3c-50.5,10.7-103.6,10.7-154.8,6.8c-55.3-4.2-110.1-14.8-163-31.6c-12.6-4-25.1-8.4-37.5-13
				C1055.9,970.2,1055.4,972.1,1056.6,972.5L1056.6,972.5z"/>
		</g>
	</g>
	<g>
		<g>
			<path class="st0" d="M972.8,888.1c19.7,7.6,38.1,18.8,56,30c23.9,15,47.1,31.1,70.3,47.2c51.4,35.8,102.2,72.6,156.1,104.5
				c22.4,13.2,45.4,25.8,69.6,35.2c9.8,3.8,19.9,7.1,30.2,9.2c10.7,2.1,21.1,2.1,32,1.5c40.4-2.1,81.4-8.5,118.6-25.1
				c13.9-6.2,29.3-13.7,40.5-24.3c5.1-4.9,9.3-10.8,13.1-16.7c11.5-17.8,20.2-37.5,28.5-57c10.8-25.6,20.3-51.6,29.4-77.8
				c18.3-52.7,34.5-106.1,50.4-159.6c14.7-49.6,29.6-99.1,43.6-148.9c10.4-36.8,20.7-73.9,35-109.4c12.6-31.1,23.7-65,46-90.8
				c24.8-28.7,63-44.2,99.4-51.6c36.3-7.4,73.9-5.4,109.4,4.6c56.1,15.8,110.3,50.3,146.7,96.2c5.7,7.1,10.9,14.7,14.9,22.9
				c0.6,1.2,2.3,0.1,1.7-1c-9-18.6-23.9-34.7-38.8-48.8c-21.5-20.3-46-37.5-72.3-50.9c-63.9-32.6-137.9-39.6-204.9-11.8
				c-16.1,6.7-31.6,14.9-44.9,26.3c-11.6,10-21.1,22.3-28.7,35.5c-8,13.9-14.2,28.8-20.2,43.6c-6.7,16.5-13.5,33-19.4,49.9
				c-13.1,37.9-23.6,76.6-34.4,115.2c-7.2,25.8-15.1,51.5-22.8,77.2c-14,46.5-27.5,93.1-42.2,139.4
				c-17.1,53.5-34.7,107.5-58.3,158.6c-7.8,17-16.2,35-28.6,49.2c-8.4,9.7-20.4,16.3-31.6,22.2c-18.9,9.9-39.2,16.8-59.9,21.6
				c-21,4.8-42.5,7.5-64,8.9c-12.5,0.8-24.6,1.4-37-1c-23-4.5-44.8-14.5-65.5-25.2c-54.3-27.9-104.6-63.6-154.5-98.5
				c-45.1-31.5-89.8-65.3-138.5-91.2c-7.8-4.2-15.9-8.1-24.2-11.3C972.1,885.7,971.6,887.6,972.8,888.1L972.8,888.1z"/>
		</g>
	</g>
	<g>
		<g>
			<path class="st0" d="M1142.5,1045.6c70.1,28.3,141.6,57,217.5,64.2c32.7,3.1,67.7,2,97.5-13.4c29-15,47.3-43,60.5-71.9
				c30.7-67.2,46.1-141.7,47.6-215.4c0.8-36.6-0.8-73.3,1.2-109.9c1-18.6,3-37.1,6.9-55.4c3.6-16.9,9.1-33,15.7-49
				c7.5-18.2,14.6-40,29.1-54.1c13.4-13,33.1-14.6,50.9-15.2c6.6-0.2,13.2-0.2,19.8-0.1c1.3,0,1.3-2,0-2c-19.6-0.2-42-1.3-60.1,7.5
				c-14.8,7.2-23.1,21.8-29.8,36.1c-12.8,27.1-23.8,55.2-29.2,84.8c-6.4,35.3-6.5,71.3-6.3,107c0.1,36.9,0.3,73.7-4.5,110.4
				c-5,38.5-14,76.6-26.8,113.2c-11.3,32.3-24.6,66.6-48.7,91.6c-25,26-60.2,34.8-95.3,35c-37.5,0.2-75.1-7.3-111.1-17.3
				c-36.9-10.2-72.8-23.7-108.4-37.9c-8.7-3.4-17.3-6.9-26-10.4C1141.9,1043.2,1141.3,1045.1,1142.5,1045.6L1142.5,1045.6z"/>
		</g>
	</g>
	<g>
		<g>
			<path class="st0" d="M1235.7,1145.6c42.8,19.6,91.5,24.1,137.4,14.2c46.5-10,88.3-34.7,119.1-71c71.1-83.6,75.6-199.9,62.7-303.7
				c-7.7-62-21-123.2-28.6-185.3c-3.7-30.6-6.1-61.4-5.8-92.2c0.4-29.8,2.6-59.6,13.3-87.7c15.3-40.2,43.4-75.3,72.8-106
				c29.3-30.6,62-58,96.2-82.9c29.4-21.4,60.1-41.2,92-58.6c12-6.5,24.1-12.8,36.6-18.2c7.8-3.4,15.9-6.9,24.3-8.7
				c2-0.4,4.2-0.9,6.2-0.5c1.3,0.3,1.8-1.7,0.5-1.9c-5.2-1.1-11.5,1.4-16.3,3.1c-10,3.4-19.6,7.8-29,12.4
				c-29.6,14.4-57.9,31.5-85.3,49.8c-33.8,22.6-66.3,47.3-96.3,74.7c-30,27.3-58.1,57.3-80.2,91.4c-13.1,20.2-23.9,41.9-29.9,65.3
				c-7.2,28.2-7.5,58.5-6.8,87.5c1.4,61.3,12.6,121.7,22.7,182c18.6,110.7,34.3,231.3-21.1,334.5c-23.7,44.1-59.9,80.7-106.1,100.7
				c-44.8,19.4-96.1,23.8-143.4,11.4c-11.7-3-23.1-7.1-34-12.2C1235.6,1143.4,1234.5,1145.1,1235.7,1145.6L1235.7,1145.6z"/>
		</g>
	</g>
	<g>
		<g>
			<path class="st0" d="M695.1,971.1c144.2,11.8,230.8,144.7,307,251.3c36.8,51.4,75.2,108.8,139.7,126.1
				c57.5,15.5,121.3,0.7,170.6-31.3c114.9-74.6,152.6-216.9,204.6-335c25.2-57.3,56.3-110.3,97.9-157.2
				c39.1-44,84.6-82.4,134.5-113.6c97.3-60.8,217.8-97.4,331.7-67.4c13.6,3.6,26.8,8.1,39.8,13.4c1.2,0.5,1.7-1.4,0.5-1.9
				c-106.3-43.5-225-23-325.1,27.2c-100.2,50.3-190.1,130.3-246,228c-68.6,119.8-92.6,266.8-193.1,367.3
				c-45.7,45.7-106.9,76.1-172.6,74.6c-31.5-0.7-62.8-9.4-89-27.1c-29.6-20-51.7-49.5-72.7-77.8c-77.3-104-150.2-233.6-284.1-270.8
				c-14.3-4-28.9-6.5-43.7-7.7C693.8,969,693.8,971,695.1,971.1L695.1,971.1z"/>
		</g>
	</g>
	<g>
		<g>
			<path class="st0" d="M775.9,1046.9c38.2-15.6,80.8-5.8,116.6,11.7c32,15.6,60.7,37.3,86.7,61.5c52,48.4,93.4,106.8,139.6,160.4
				c45.9,53.2,102.4,113,178.8,108.8c37.8-2.1,75-17.2,105.7-39.1c29.7-21.2,52.2-49.7,66.4-83.3c15.3-36.3,21.7-75.5,27.1-114.3
				c6-43.8,10.2-87.9,12.2-132.1c2.1-44.9,2-89.8-0.3-134.6c-2.2-42.1-2.1-84.1-2.7-126.2c-0.5-40.8-2.5-81.9-11.5-121.8
				c-5.2-22.9-14.2-44.7-18.2-67.9c-7.4-42.1-6.6-85.9-0.6-128.1c6.7-47,20.4-93.9,45-134.7c24.5-40.8,60.6-74.1,106.1-89.5
				c11.9-4,24.1-6.8,36.5-8.5c1.3-0.2,0.7-2.1-0.5-1.9c-47.4,6.7-89.8,30.2-120.8,66.6c-30.1,35.4-48.8,79.5-59.9,124.3
				c-10.8,43.5-14.9,89-12.2,133.7c1.1,18.2,3.4,36.4,7.7,54.2c2.4,10.1,6.1,19.7,9.1,29.7c6.1,20.3,10.2,41.2,12.7,62.3
				c5.1,41.5,4.8,83.4,4.9,125.1c0.2,43.1,3.2,86.1,4,129.2c0.8,44.9-0.7,89.8-4.2,134.6c-3.4,43.6-8.2,87.4-16.4,130.4
				c-7.3,38.3-18.8,76.7-41.9,108.6c-23.1,31.8-56.8,55.4-93.3,69.3c-38.9,14.8-81.3,17.2-119.9,0c-34.3-15.3-62.4-41.7-87.8-68.8
				c-48.6-51.9-89.5-110.6-138.5-162.2c-23.4-24.7-48.7-47.7-77-66.6c-30-20.1-64.1-36.7-100.6-40c-18.2-1.6-36.4,0.5-53.3,7.4
				C774.2,1045.5,774.8,1047.4,775.9,1046.9L775.9,1046.9z"/>
		</g>
	</g>
	<g>
		<g>
			<path class="st0" d="M862.2,1136.5c23.1-8.3,46.8-0.5,67.2,11.1c20.6,11.7,39.1,26.9,58,41.2c38.5,29.1,77,58.4,118.1,84
				c77.5,48.3,169.1,84.4,261.9,71.2c81.5-11.6,153.1-61.7,203.4-125.3c56.5-71.4,87.4-159.4,107.6-247.1
				c14.6-63.2,38.3-123.5,55.9-185.8c12.6-44.6,24.5-89.4,36.6-134.2c15.2-56.5,30.5-113,46.3-169.4c13.8-49.3,27.8-98.6,43.7-147.3
				c5.2-16,10.6-32.1,17.1-47.6c7.4-17.7,19-32,34.2-44c47.1-37.4,115.5-28.6,162,5.4c6.4,4.7,13.1,10.1,17.2,17
				c0.7,1.1,2.4,0.1,1.7-1c-9.3-15.8-29.4-26.3-45.4-33.6c-24.9-11.2-52.9-17-80.2-13.4c-32.9,4.3-60.8,22.8-80.7,48.9
				c-6.8,8.9-10.8,19.8-14.7,30.3c-15.7,41.3-27.9,84.1-40.2,126.5c-16.3,56.1-31.7,112.4-47,168.7c-14,51.5-27.8,103.2-41.9,154.7
				c-4.8,17.6-9.7,35.2-14.8,52.8c-7.1,24.5-15.8,48.4-23.7,72.6c-8.1,24.8-15.8,49.6-22.3,74.9c-5.9,23-10.8,46.2-17.2,69.1
				c-12.8,45.7-29.1,90.6-51.4,132.6c-40.5,76.5-103,144-184.6,176.6c-89.9,35.9-187.8,16.6-271.9-25.7
				c-43.1-21.7-83.1-49-121.9-77.5c-19.6-14.4-39-29.2-58.5-43.9c-18.6-14.1-37.2-28.9-58.6-38.6c-17.9-8.1-37.5-11.8-56.5-5.1
				C860.5,1135,861,1137,862.2,1136.5L862.2,1136.5z"/>
		</g>
	</g>
	<g>
		<g>
			<path class="st0" d="M942,1218.7c80.7-3,142.8,57.1,207.8,95.4c58.6,34.6,126.6,49.3,194.3,42c65.6-7,130.1-34.2,177.6-80.6
				c25.1-24.5,43.9-54.3,53.7-88.2c10.3-35.7,11.6-73.5,10.1-110.4c-3.4-81-20.2-160.8-40.1-239.2c-10.1-39.7-21-79.2-31.5-118.7
				c-10.5-39.7-21.8-80.3-21-121.8c0.7-36.4,13.8-71.7,28.2-104.8c13.8-31.8,30.7-62.5,52-90c34.7-44.9,83.1-74.2,135.7-94
				c51.7-19.4,106.8-30.3,161.8-34.5c43.9-3.3,90.4-3.6,133.3,7.9c7.4,2,14.7,4.4,21.6,7.6c1.2,0.5,2.2-1.2,1-1.7
				c-15.1-7-31.8-10.7-48.2-13.1c-21.8-3.3-43.8-4.4-65.8-4.3c-53.4,0.2-107.1,7.5-158.6,21.6c-50.9,13.9-101.7,34.8-142.9,68.4
				c-49.9,40.7-82.2,102-103.7,161.7c-5.8,16.1-11.4,32.7-14.1,49.7c-3.1,19.5-2.7,39.3-0.4,58.8c4.7,39.7,16.4,78.5,26.8,117
				c21.3,79.2,43.2,158.6,55.3,239.9c6,40.3,10,81.3,9.2,122.1c-0.7,38.4-6.5,77.6-24.2,112c-32.2,62.6-98.4,104.4-164.8,122.7
				c-65.8,18.1-137.6,14.9-201.1-10.6c-70.8-28.5-124.9-88.6-199-110.3c-17.2-5-34.9-7.6-52.9-7
				C940.7,1216.7,940.7,1218.7,942,1218.7L942,1218.7z"/>
		</g>
	</g>
	<g>
		<g>
			<path class="st0" d="M985.4,517.7c62.2-14,126.8,4.8,180.1,37.4c23.3,14.3,42.7,32.1,60.6,52.7c17.3,20,33.2,41.3,51.5,60.4
				c15.9,16.5,33.8,31.2,54.8,40.6c13.5,6.1,27.7,10.1,42.3,12.8c33.6,6.1,68.2,4.9,101.9,1c81.1-9.5,160.2-34.7,236.5-63
				c69.4-25.8,137.2-55.6,204.4-86.7c20.2-9.4,40.3-19,60.8-27.9c9.3-4,18.6-7,28.3-9.9c17.4-5.1,34.5-8,52.5-5.2
				c15.5,2.4,30.5,7.3,44.7,13.8c13.4,6.1,26.2,13.5,38.8,21.1c1.1,0.7,2.1-1.1,1-1.7c-25.5-15.4-52.2-29.8-82-34.7
				c-25.1-4.2-49.8,1.8-73.4,10.5c-16.7,6.2-32.8,14.3-48.9,21.8c-63.7,29.5-127.5,58.5-192.9,84.1c-77.8,30.5-158.1,58-240.8,71.8
				c-69.4,11.6-150.6,15.9-208-32.1c-40.3-33.7-65.9-81.7-107.1-114.4c-22.4-17.8-48.8-31.7-75.5-41.9c-27.9-10.7-57.7-17.1-87.7-17
				c-14.3,0.1-28.6,1.7-42.5,4.8C983.6,516,984.2,518,985.4,517.7L985.4,517.7z"/>
		</g>
	</g>
	<g>
		<g>
			<path class="st0" d="M1070.2,600.1c48.3-10.9,96,6.5,140.5,23.8c22.2,8.6,44.3,17.6,67.2,24.2c21.8,6.2,44.2,10.5,66.8,12.7
				c45.1,4.5,91,1,134.9-10.1c22-5.6,43.5-13.1,64.2-22.5c21.2-9.7,41-21.9,61-33.7c18.3-10.9,37.1-21.5,57.2-28.6
				c9.7-3.4,19.8-6,29.8-8.3c26-5.9,52.6-9.5,79.2-12c62.4-5.9,125.9-6.2,188.1,1.5c28.2,3.5,56.6,8.7,83.5,17.9
				c20.6,7,41.8,16.5,57.2,32.4c3.2,3.3,6,6.8,8.5,10.6c0.7,1.1,2.4,0.1,1.7-1c-10.9-16.9-28.8-28.1-46.9-36.1
				c-24.3-10.9-50.6-17.2-76.8-21.8c-62-10.7-125.9-11.8-188.5-7.7c-28.5,1.8-56.9,4.9-85,9.9c-23.5,4.2-46.8,9.7-68.6,19.6
				c-21.9,9.9-42.1,22.9-62.8,35.1c-20.8,12.2-42.3,22.9-65,31.2c-44.1,16.2-91.1,24.1-138.1,23.5c-48.1-0.6-94.4-10.8-139.3-27.8
				c-44.1-16.7-89.1-38.1-137.2-38.3c-10.9,0-21.8,1.2-32.5,3.6C1068.4,598.5,1068.9,600.4,1070.2,600.1L1070.2,600.1z"/>
		</g>
	</g>
	<g>
		<g>
			<path class="st0" d="M1151.5,687.5c70.1,1.5,134.5,40.3,205.4,34.4c34.4-2.9,67.4-14.5,99-27.8c33.2-14,65.7-29.6,99.5-42.1
				c34.8-13,70.5-23.8,106.7-32.2c18.9-4.4,38-8.1,57.4-9.9c15.6-1.5,31.1-1.3,46.7-0.7c50.7,1.9,102.3,2.2,152.1,13.1
				c31.7,6.9,63,15.8,93.2,27.5c27.8,10.8,55.6,24.1,78.7,43.3c4.7,3.9,9.1,8,13.2,12.4c0.9,0.9,2.3-0.5,1.4-1.4
				c-18.7-20-43.2-34.1-67.8-45.6c-28.9-13.4-59.4-23.5-90.2-31.5c-25.7-6.7-51.4-12-77.9-14.3c-27.2-2.4-54.6-3.6-81.9-4.7
				c-11.1-0.4-22.1-0.9-33.2-1.3c-18.3-0.6-36.6,0.9-54.6,3.7c-37.5,5.8-74.5,16-110.5,27.8c-34.6,11.3-68.1,25.2-101.4,40
				c-33,14.7-66.5,29.7-102,37.4c-17.5,3.8-35.3,5.6-53.2,4.8c-18.1-0.8-36-4.1-53.5-8.4c-34.1-8.2-67.5-19.9-102.3-24.6
				c-8.2-1.1-16.5-1.8-24.8-1.9C1150.2,685.4,1150.2,687.4,1151.5,687.5L1151.5,687.5z"/>
		</g>
	</g>
	<g>
		<g>
			<path class="st0" d="M1235.3,770.9c36.3,9.7,74,19.2,111.6,11.1c17.6-3.8,34.5-10.7,51-17.8c17.5-7.5,34.7-15.7,51.8-24
				c33.1-15.9,66.1-31.6,100.6-44.3c25.1-9.2,50.3-18.3,75.5-27.1c56.6-19.6,113.9-37.6,172.2-51.5c58-13.9,117.5-24.1,177.3-24.7
				c52.8-0.5,107.4,6.6,154.7,31.3c5.4,2.8,10.7,5.9,15.8,9.1c1.1,0.7,2.1-1,1-1.7c-43.2-27.4-94.6-38.1-145.1-40.3
				c-58.5-2.5-117.3,5.6-174.4,17.7c-59.3,12.5-117.5,29.8-174.9,49c-56.7,19-113.9,38.4-168.1,63.8c-34.6,16.2-68.6,34-104.2,48
				c-17.9,7-36.4,12.6-55.7,13.5c-20.2,1-40.4-2.3-60-6.8c-9.5-2.2-18.9-4.7-28.3-7.2C1234.6,768.7,1234.1,770.6,1235.3,770.9
				L1235.3,770.9z"/>
		</g>
	</g>
	<g>
		<g>
			<path class="st0" d="M1319.1,858.9c72.7-27.6,139.1-69.2,199.6-117.8c61-49.1,115.1-105.3,168.4-162.5
				c50.6-54.3,102.6-109.5,166.9-147.7c25.7-15.3,53.4-28,82.5-35.2c20.3-5.1,41-9.2,61.5-13.1c26.4-5,53-9.5,79.7-12.8
				c19.6-2.4,40.7-5.6,60.5-3.1c2.6,0.3,5.3,0.8,7.7,1.8c1.2,0.5,1.7-1.4,0.5-1.9c-5.8-2.4-12.6-2.5-18.8-2.5
				c-10.3-0.1-20.5,0.6-30.8,1.6c-25.7,2.4-51.2,6.4-76.6,10.8c-46.7,8.1-94.1,16.2-137.3,36.6c-67.3,31.8-122,84.4-172.7,137.8
				c-26.2,27.6-51.7,55.8-78.2,83.1c-27.7,28.5-56.3,56-86.4,81.9c-60,51.8-125.9,97.5-198.7,129.4c-9.4,4.1-18.9,8-28.5,11.6
				C1317.4,857.4,1317.9,859.3,1319.1,858.9L1319.1,858.9z"/>
		</g>
	</g>
</g>
</svg>
